<?xml version="1.0" encoding="UTF-8"?>
<svg width="274px" height="200px" viewBox="0 0 197 144" version="1.1" xmlns="http://www.w3.org/2000/svg" xmlns:xlink="http://www.w3.org/1999/xlink">
    <title>documentation-bluehost</title>
    <g id="Page-1" stroke="none" stroke-width="1" fill="none" fill-rule="evenodd">
        <g id="Help-Bluehost" transform="translate(-358.000000, -322.000000)" fill-rule="nonzero">
            <g id="documentation-bluehost" transform="translate(358.000000, 322.000000)">
                <g id="Group" transform="translate(110.000000, 0.000000)" fill="#E3F6FF">
                    <path d="M6.3766672,35.9266104 C6.44826487,35.8558364 6.475114,35.7496756 6.43931516,35.6523614 C6.42141575,35.6081277 4.85074193,31.2643785 5.39219929,25.3016759 C5.89338295,19.8078504 8.34112819,11.7705873 17.1744903,4.67992536 C17.2863617,4.59145796 17.3042611,4.42779327 17.214764,4.31278566 C17.1252669,4.20220141 16.9552225,4.18450793 16.8433511,4.27297533 C7.85784394,11.4830683 5.37429987,19.6751493 4.86864135,25.2751356 C4.32270914,31.3484225 5.92918179,35.7850625 5.9470812,35.8292962 C5.9963046,35.9664207 6.14844964,36.0327712 6.28269527,35.9841142 C6.3184941,35.9708441 6.35429293,35.9487272 6.3766672,35.922187 L6.3766672,35.9266104 Z" id="Path"></path>
                    <path d="M11.1289623,4.62242155 C11.1065881,6.29445537 11.9389109,7.26317338 12.981552,7.27644349 C14.024193,7.2897136 14.8788901,6.34311244 14.9012644,4.66665525 C14.9236387,2.99462143 13.0576245,1.21200335 13.0576245,1.21200335 C13.0576245,1.21200335 11.1513366,2.94596436 11.1289623,4.61799818 L11.1289623,4.62242155 Z" id="Path"></path>
                    <path d="M7.28953746,9.36869746 C7.73254802,10.9832275 8.80203817,11.6909667 9.80440551,11.4211411 C10.8112477,11.1513155 11.3706045,10.0100861 10.9275939,8.39555608 C10.4845833,6.78102606 8.19793286,5.57344608 8.19793286,5.57344608 C8.19793286,5.57344608 6.84205204,7.75859081 7.2850626,9.37312083 L7.28953746,9.36869746 Z" id="Path"></path>
                    <path d="M4.34060855,14.3582587 C5.15950687,15.8223941 6.36324264,16.2603078 7.27611289,15.7648903 C8.18898315,15.2694729 8.46194925,14.026506 7.64305094,12.5623705 C6.82415262,11.0982351 4.31823428,10.4568465 4.31823428,10.4568465 C4.31823428,10.4568465 3.52171024,12.8941233 4.34060855,14.3626821 L4.34060855,14.3582587 Z" id="Path"></path>
                    <path d="M2.33587388,19.6574559 C3.2621687,21.0596641 4.49722845,21.404687 5.36982501,20.842919 C6.24242158,20.281151 6.42141575,19.0204906 5.49512093,17.6227057 C4.56882612,16.2204974 2.01815923,15.7693137 2.01815923,15.7693137 C2.01815923,15.7693137 1.40957907,18.259671 2.33587388,19.6618792 L2.33587388,19.6574559 Z" id="Path"></path>
                    <path d="M1.37378023,25.4255302 C2.64911367,26.5269493 3.93339682,26.5269493 4.61804951,25.7484362 C5.3027022,24.9743465 5.12818289,23.7136861 3.85284945,22.6122669 C2.57751601,21.5108478 0,21.7629799 0,21.7629799 C0,21.7629799 0.0984467919,24.3241111 1.37825509,25.4211068 L1.37378023,25.4255302 Z" id="Path"></path>
                    <path d="M17.2729371,1.37124467 C16.1631733,2.63632846 16.1676481,3.90583563 16.9552225,4.57818785 C17.7427968,5.25054008 19.0136554,5.07802865 20.1234192,3.81294486 C21.2331831,2.54786106 20.9736415,0 20.9736415,0 C20.9736415,0 18.382701,0.106160878 17.277412,1.37124467 L17.2729371,1.37124467 Z" id="Path"></path>
                    <path d="M16.2392458,6.25022167 C14.5567006,6.42715647 13.6841041,7.36048752 13.7915006,8.38228597 C13.9033719,9.40408442 14.9549627,10.1339405 16.6375078,9.95700565 C18.320053,9.78007086 19.886252,7.73647396 19.886252,7.73647396 C19.886252,7.73647396 17.9173161,6.06886351 16.234771,6.25022167 L16.2392458,6.25022167 Z" id="Path"></path>
                    <path d="M12.8294069,10.2622182 C11.1468618,10.439153 10.2742652,11.372484 10.3816617,12.3942825 C10.493533,13.4160809 11.5451238,14.145937 13.227669,13.9690022 C14.9102141,13.7920674 16.4764131,11.7484705 16.4764131,11.7484705 C16.4764131,11.7484705 14.5074772,10.08086 12.8249321,10.2577948 L12.8294069,10.2622182 Z" id="Path"></path>
                    <path d="M10.2876898,14.3847989 C8.60514459,14.5617337 7.73254802,15.4950648 7.83994452,16.5168632 C7.95181588,17.5386617 9.00340661,18.2685177 10.6859518,18.0915829 C12.368497,17.9146481 13.9346959,15.8710512 13.9346959,15.8710512 C13.9346959,15.8710512 11.9657601,14.2034408 10.2832149,14.3803756 L10.2876898,14.3847989 Z" id="Path"></path>
                    <path d="M8.65884284,18.8568259 C6.97629766,19.0337607 6.1037011,19.9670917 6.2110976,20.9888902 C6.32296895,22.0106886 7.37455969,22.7405447 9.05710486,22.5636099 C10.73965,22.3866751 12.305849,20.3430782 12.305849,20.3430782 C12.305849,20.3430782 10.3369132,18.6754677 8.65436798,18.8524025 L8.65884284,18.8568259 Z" id="Path"></path>
                    <path d="M7.79519598,23.4482839 C6.11265081,23.6252187 5.24005424,24.5585497 5.34745074,25.5803482 C5.4593221,26.6021466 6.51091283,27.3320026 8.193458,27.1550678 C9.87600317,26.978133 11.4422021,24.9345361 11.4422021,24.9345361 C11.4422021,24.9345361 9.4732663,23.2669257 7.79072113,23.4482839 L7.79519598,23.4482839 Z" id="Path"></path>
                </g>
                <path d="M25.1177429,16.7436106 C15.8345531,17.6803268 6.71594304,25.7112261 7.13406467,35.4779361 C7.50770528,44.1836262 14.8025933,51.007005 16.2749152,59.5839521 C18.4500373,72.2629175 7.61890784,83.259345 5.39930471,95.9294315 C3.94032711,104.262211 6.54246705,113.269781 12.1737648,119.347338 C17.8050625,125.429335 26.3142825,128.425939 34.3075226,127.142949 C44.8495254,125.451532 54.0215127,116.936737 64.6747181,117.393996 C73.2551078,117.762468 80.4610337,123.844464 87.9249497,128.306075 C95.3888656,132.763246 105.45937,135.489046 112.060354,129.726688 C116.517352,125.833322 117.851783,119.316263 121.134483,114.299725 C126.067428,106.761601 135.86215,103.152358 144.211238,105.798248 C151.261481,108.031273 157.12408,114.162103 164.476793,114.637121 C171.736096,115.107698 178.657344,109.269869 180.570028,101.918201 C182.48716,94.5665315 179.769369,86.3491769 174.498368,81.0973506 C171.157843,77.7677904 166.620778,75.0686269 165.56213,70.3672878 C164.583547,66.0299807 167.065589,61.6172036 170.134779,58.5318111 C173.20397,55.4464186 176.95372,53.1068476 179.675959,49.6796203 C185.86327,41.8928888 184.964753,31.4513879 179.800506,23.3672157 C177.09606,19.1364545 174.062454,16.4772458 169.787827,14.0710836 C165.495408,11.6560425 160.887174,9.85808003 156.141049,8.71271131 C145.523428,6.15116964 129.34568,5.32543871 121.276822,14.5416614 C117.260185,19.1320151 113.172379,24.8721769 106.500226,24.0952795 C102.385731,23.6158229 99.8369681,20.4860363 96.5453722,18.2219353 C92.2929863,15.3008011 87.9872231,16.9123083 83.9527942,19.4338952 C79.7938184,22.039831 76.4310529,25.8577268 72.3254543,28.5480114 C63.0867455,34.5989322 56.6236527,28.7966186 48.7149265,23.8688695 C41.6246512,19.4516529 33.5513452,15.8779249 25.1266391,16.7302923 L25.1177429,16.7436106 Z" id="Path" fill="#ECF7FA"></path>
                <path d="M38.1177429,27.7436106 C28.8345531,28.6803268 19.715943,36.7112261 20.1340647,46.4779361 C20.5077053,55.1836262 27.8025933,62.007005 29.2749152,70.5839521 C31.4500373,83.2629175 20.6189078,94.259345 18.3993047,106.929432 C16.9403271,115.262211 19.542467,124.269781 25.1737648,130.347338 C30.8050625,136.429335 39.3142825,139.425939 47.3075226,138.142949 C57.8495254,136.451532 67.0215127,127.936737 77.6747181,128.393996 C86.2551078,128.762468 93.4610337,134.844464 100.92495,139.306075 C108.388866,143.763246 118.45937,146.489046 125.060354,140.726688 C129.517352,136.833322 130.851783,130.316263 134.134483,125.299725 C139.067428,117.761601 148.86215,114.152358 157.211238,116.798248 C164.261481,119.031273 170.12408,125.162103 177.476793,125.637121 C184.736096,126.107698 191.657344,120.269869 193.570028,112.918201 C195.48716,105.566532 192.769369,97.3491769 187.498368,92.0973506 C184.157843,88.7677904 179.620778,86.0686269 178.56213,81.3672878 C177.583547,77.0299807 180.065589,72.6172036 183.134779,69.5318111 C186.20397,66.4464186 189.95372,64.1068476 192.675959,60.6796203 C198.86327,52.8928888 197.964753,42.4513879 192.800506,34.3672157 C190.09606,30.1364545 187.062454,27.4772458 182.787827,25.0710836 C178.495408,22.6560425 173.887174,20.85808 169.141049,19.7127113 C158.523428,17.1511696 142.34568,16.3254387 134.276822,25.5416614 C130.260185,30.1320151 126.172379,35.8721769 119.500226,35.0952795 C115.385731,34.6158229 112.836968,31.4860363 109.545372,29.2219353 C105.292986,26.3008011 100.987223,27.9123083 96.9527942,30.4338952 C92.7938184,33.039831 89.4310529,36.8577268 85.3254543,39.5480114 C76.0867455,45.5989322 69.6236527,39.7966186 61.7149265,34.8688695 C54.6246512,30.4516529 46.5513452,26.8779249 38.1266391,27.7302923 L38.1177429,27.7436106 Z" id="Path" fill="#DDEFF7"></path>
                <g id="Group" transform="translate(41.000000, 35.000000)" fill="#B2E4F9">
                    <path d="M30.6678034,26.9903235 C30.5748169,26.963378 30.4951143,26.8870327 30.4774026,26.7837419 C30.4685468,26.7388329 29.6051015,22.135658 26.1203252,17.1911744 C22.9056521,12.6329085 16.7419816,6.84413526 5.61460795,5.12861055 C5.47291437,5.10615603 5.37550004,4.97142896 5.39763966,4.82772008 C5.41977928,4.68401121 5.55261701,4.58521135 5.69431059,4.60766587 C17.0165129,6.350136 23.2908816,12.2556727 26.5631176,16.9037566 C30.1098849,21.9425491 30.9866139,26.6400331 30.9954698,26.689433 C31.0220373,26.8331419 30.9290509,26.9723598 30.7873573,26.9948144 C30.747506,27.0037962 30.7120826,26.9993053 30.6766592,26.9948144 L30.6678034,26.9903235 Z" id="Path"></path>
                    <path d="M10.7377163,2.00294247 C11.6055895,3.45799485 11.3841932,4.72892023 10.5030363,5.26782852 C9.6218794,5.80673681 8.40862815,5.4160283 7.54518292,3.96097592 C6.67730977,2.50592354 7.36806595,0 7.36806595,0 C7.36806595,0 9.87427108,0.547890093 10.7421442,2.00294247 L10.7377163,2.00294247 Z" id="Path"></path>
                    <path d="M16.4187431,4.20348465 C16.8615355,5.84266403 16.308045,7.00131685 15.3117621,7.2797528 C14.3154791,7.55369784 13.2572052,6.83964436 12.8188407,5.20046498 C12.3760483,3.56128561 13.7132814,1.34277982 13.7132814,1.34277982 C13.7132814,1.34277982 15.9759507,2.56430527 16.4187431,4.20348465 Z" id="Path"></path>
                    <path d="M21.4665768,7.07317129 C21.510856,8.7707324 20.7049738,9.76771273 19.6732674,9.79465814 C18.6415611,9.82160356 17.7825438,8.87402315 17.7338366,7.17646204 C17.6895574,5.47890093 19.5050063,3.64212185 19.5050063,3.64212185 C19.5050063,3.64212185 21.4178696,5.37111928 21.4665768,7.07317129 Z" id="Path"></path>
                    <path d="M25.8635055,10.6928386 C25.7838029,12.3903997 24.9070739,13.3200165 23.8753676,13.2706166 C22.8436612,13.2212167 22.0554907,12.2107636 22.1351933,10.5132025 C22.214896,8.81564142 24.1587547,7.12257121 24.1587547,7.12257121 C24.1587547,7.12257121 25.9387803,8.99078661 25.8635055,10.6883477 L25.8635055,10.6928386 Z" id="Path"></path>
                    <path d="M29.6095295,15.2511046 C29.0781786,16.8633385 27.9800533,17.5145194 27.00591,17.1821926 C26.0273387,16.8498658 25.5402671,15.6597767 26.071618,14.0475427 C26.6029689,12.4353088 28.932057,11.3440195 28.932057,11.3440195 C28.932057,11.3440195 30.1453083,13.6343797 29.6139574,15.2466137 L29.6095295,15.2511046 Z" id="Path"></path>
                    <path d="M3.84786617,2.27688752 C5.43749098,2.82028671 6.07511207,3.93403051 5.74744568,4.92202904 C5.41977928,5.91451847 4.24195143,6.40402683 2.65675455,5.86062764 C1.06712974,5.31722845 0,2.95501378 0,2.95501378 C0,2.95501378 2.26266929,1.73348833 3.84786617,2.27239662 L3.84786617,2.27688752 Z" id="Path"></path>
                    <path d="M7.20423275,6.02230012 C8.73186662,5.32171935 9.94954579,5.69446425 10.3746265,6.64653556 C10.7997072,7.59860687 10.2683563,8.7707324 8.74515039,9.47131317 C7.21751653,10.1718939 4.84857705,9.17940451 4.84857705,9.17940451 C4.84857705,9.17940451 5.68102681,6.71839 7.20866068,6.02230012 L7.20423275,6.02230012 Z" id="Path"></path>
                    <path d="M12.1457962,7.80069748 C13.6734301,7.1001167 14.8911093,7.4728616 15.31619,8.42493291 C15.7412707,9.37700422 15.2099198,10.5491297 13.6867139,11.2497105 C12.15908,11.9502913 9.79014052,10.9578019 9.79014052,10.9578019 C9.79014052,10.9578019 10.6225903,8.49678735 12.1502241,7.80069748 L12.1457962,7.80069748 Z" id="Path"></path>
                    <path d="M16.4054593,10.1180031 C17.9330932,9.41742234 19.1507724,9.79016724 19.5758531,10.7422386 C20.0009338,11.6943099 19.4695829,12.8664354 17.946377,13.5670162 C16.4187431,14.2675969 14.0498036,13.2751075 14.0498036,13.2751075 C14.0498036,13.2751075 14.8822534,10.814093 16.4098873,10.1180031 L16.4054593,10.1180031 Z" id="Path"></path>
                    <path d="M20.0629248,13.2032531 C21.5905586,12.5026723 22.8082378,12.8754172 23.2333185,13.8274885 C23.6583993,14.7795598 23.1270484,15.9516853 21.6038424,16.6522661 C20.0762085,17.3528469 17.7072691,16.3603575 17.7072691,16.3603575 C17.7072691,16.3603575 18.5397188,13.8993429 20.0673527,13.2032531 L20.0629248,13.2032531 Z" id="Path"></path>
                    <path d="M23.1314763,16.7869932 C24.6591101,16.0864124 25.8767893,16.4591573 26.30187,17.4112286 C26.7269508,18.3632999 26.1955999,19.5354255 24.6723939,20.2360062 C23.1447601,20.936587 20.7758206,19.9440976 20.7758206,19.9440976 C20.7758206,19.9440976 21.6082703,17.4830831 23.1359042,16.7869932 L23.1314763,16.7869932 Z" id="Path"></path>
                </g>
                <g id="Group" transform="translate(133.000000, 38.000000)" fill="#B2E4F9">
                    <path d="M0.332244101,26.9903218 C0.425243793,26.9633719 0.504957816,26.8870139 0.522672043,26.783706 C0.531529157,26.7387895 1.39509773,22.1348487 4.88037194,17.1895426 C8.09550419,12.6305184 14.2600553,6.84078219 25.3890185,5.12497208 C25.5307323,5.10251383 25.6281606,4.96776435 25.6060178,4.82403156 C25.583875,4.68029878 25.4510183,4.58148249 25.3093045,4.60394074 C13.9854847,6.34670074 7.71021974,12.2532198 4.43751626,16.9020771 C0.890242258,21.9417078 0.0133880103,26.6399732 0.00453089667,26.6893813 C-0.0220404442,26.8331141 0.0709592488,26.9723552 0.212673067,26.9948135 C0.252530078,27.0037968 0.287958532,26.9993051 0.323386987,26.9948135 L0.332244101,26.9903218 Z" id="Path"></path>
                    <path d="M20.2651783,2.00327568 C19.3971812,3.45857011 19.618609,4.72970692 20.4998918,5.26870486 C21.3811746,5.8077028 22.5945992,5.4169293 23.4581678,3.96163486 C24.3217363,2.50634042 23.63531,0 23.63531,0 C23.63531,0 21.1287469,0.547981239 20.2607497,2.00327568 L20.2651783,2.00327568 Z" id="Path"></path>
                    <path d="M14.5789114,4.19969228 C14.1360557,5.83914435 14.6896253,6.99798992 15.6860506,7.27647219 C16.6824758,7.55046281 17.7409009,6.83629054 18.179328,5.19683847 C18.6177552,3.5573864 17.2847596,1.33851155 17.2847596,1.33851155 C17.2847596,1.33851155 15.021767,2.56024021 14.5789114,4.19969228 Z" id="Path"></path>
                    <path d="M9.53478515,7.06985631 C9.49049958,8.76769982 10.2964969,9.76484601 11.3283507,9.79179591 C12.3602044,9.81874581 13.2193444,8.87100776 13.2680585,7.17316425 C13.3123441,5.47532074 11.4966358,3.63823609 11.4966358,3.63823609 C11.4966358,3.63823609 9.58349927,5.36752115 9.53478515,7.06985631 Z" id="Path"></path>
                    <path d="M5.13722824,10.6901258 C5.21694226,12.3879693 6.09379651,13.3177408 7.12565024,13.2683326 C8.15750398,13.2189245 8.94578709,12.2083033 8.86607307,10.5104598 C8.78635905,8.81261632 6.84222261,7.11926446 6.84222261,7.11926446 C6.84222261,7.11926446 5.06194277,8.98779065 5.13722824,10.6856342 L5.13722824,10.6901258 Z" id="Path"></path>
                    <path d="M1.39066918,15.24915 C1.92209599,16.8616522 3.02037808,17.5129414 3.99466058,17.1805593 C4.96894308,16.8481773 5.46051288,15.6578902 4.92908607,14.045388 C4.39765925,12.4328858 2.06823837,11.341415 2.06823837,11.341415 C2.06823837,11.341415 0.854813804,13.6321562 1.38624062,15.2446584 L1.39066918,15.24915 Z" id="Path"></path>
                    <path d="M27.1515841,2.27277465 C25.5617322,2.81626424 24.9240201,3.93019331 25.2517333,4.9183562 C25.5794465,5.91101074 26.7574426,6.40060054 28.3428659,5.85711095 C29.9327178,5.31362136 31,2.95101372 31,2.95101372 C31,2.95101372 28.7370075,1.72928506 27.1515841,2.268283 L27.1515841,2.27277465 Z" id="Path"></path>
                    <path d="M23.7991666,6.02330198 C22.2713145,5.32260466 21.0534614,5.69541156 20.62832,6.64764126 C20.2031785,7.59987095 20.7346053,8.77219147 22.2580289,9.47288879 C23.785881,10.1735861 26.1551589,9.18093158 26.1551589,9.18093158 C26.1551589,9.18093158 25.3225902,6.71950765 23.7947381,6.02330198 L23.7991666,6.02330198 Z" id="Path"></path>
                    <path d="M18.8568972,7.79750353 C17.3290451,7.09680621 16.111192,7.46961312 15.6860506,8.42184281 C15.2609091,9.3740725 15.7923359,10.546393 17.3157595,11.2470903 C18.8436116,11.9477877 21.2128895,10.9551331 21.2128895,10.9551331 C21.2128895,10.9551331 20.3803208,8.4937092 18.8524687,7.79750353 L18.8568972,7.79750353 Z" id="Path"></path>
                    <path d="M14.592197,10.1151947 C13.0643449,9.41449735 11.8464918,9.78730426 11.4213503,10.739534 C10.9962089,11.6917636 11.5276357,12.8640842 13.0510593,13.5647815 C14.5789114,14.2654788 16.9481892,13.2728243 16.9481892,13.2728243 C16.9481892,13.2728243 16.1156206,10.8114003 14.5877685,10.1151947 L14.592197,10.1151947 Z" id="Path"></path>
                    <path d="M10.9342091,13.2054495 C9.406357,12.5047522 8.18850388,12.8775591 7.76336243,13.8297888 C7.33822097,14.7820185 7.86964779,15.954339 9.39307133,16.6550363 C10.9209234,17.3557337 13.2902013,16.3630791 13.2902013,16.3630791 C13.2902013,16.3630791 12.4576326,13.9016552 10.9297805,13.2054495 L10.9342091,13.2054495 Z" id="Path"></path>
                    <path d="M7.86964779,16.7852942 C6.34179569,16.0845969 5.12394257,16.4574038 4.69880111,17.4096335 C4.27365966,18.3618632 4.80508648,19.5341837 6.32851002,20.234881 C7.85636212,20.9355783 10.22564,19.9429238 10.22564,19.9429238 C10.22564,19.9429238 9.39307133,17.4814999 7.86521923,16.7852942 L7.86964779,16.7852942 Z" id="Path"></path>
                </g>
                <path d="M69.9135227,28 L140.086477,28 C141.144068,28 142,28.850578 142,29.9015539 L142,120.098446 C142,121.149422 141.144068,122 140.086477,122 L69.9135227,122 C68.8559317,122 68,121.149422 68,120.098446 L68,29.9015539 C68,28.850578 68.8559317,28 69.9135227,28 Z" id="Path" fill="#414A59"></path>
                <rect id="Rectangle" fill="#FFFFFF" x="71" y="32" width="67" height="87"></rect>
                <g id="Group" transform="translate(82.000000, 40.000000)" fill="#E5E5E5">
                    <g>
                        <rect id="Rectangle" x="0" y="6.49645752" width="47" height="1.69783622" rx="0.848918108"></rect>
                        <path d="M46.1601618,12.3763324 L0.839838239,12.3763324 C0.375717107,12.3763324 0,11.9965533 0,11.5274143 L0,11.5274143 C0,11.0582754 0.375717107,10.6784962 0.839838239,10.6784962 L46.1601618,10.6784962 C46.6242829,10.6784962 47,11.0582754 47,11.5274143 L47,11.5274143 C47,11.9965533 46.6242829,12.3763324 46.1601618,12.3763324 Z" id="Path"></path>
                        <path d="M31.9978369,1.69783622 L15.0065833,1.69783622 C14.5424621,1.69783622 14.166745,1.31805706 14.166745,0.848918108 L14.166745,0.848918108 C14.166745,0.379779154 14.5424621,0 15.0065833,0 L31.9978369,0 C32.4619581,0 32.8376752,0.379779154 32.8376752,0.848918108 L32.8376752,0.848918108 C32.8376752,1.31805706 32.4619581,1.69783622 31.9978369,1.69783622 Z" id="Path"></path>
                        <rect id="Rectangle" x="0" y="14.8605349" width="37.2799774" height="1.69783622" rx="0.848918108"></rect>
                        <rect id="Rectangle" x="0" y="19.0470416" width="47" height="1.69783622" rx="0.848918108"></rect>
                    </g>
                    <g transform="translate(0.000000, 25.391587)" id="Rectangle">
                        <rect x="0" y="0" width="30.2076554" height="1.69783622" rx="0.848918108"></rect>
                        <rect x="37.2799774" y="0" width="9.72002257" height="1.69783622" rx="0.848918108"></rect>
                        <rect x="0" y="4.18203868" width="47" height="1.69783622" rx="0.848918108"></rect>
                    </g>
                    <g transform="translate(0.000000, 44.657560)" id="Rectangle">
                        <rect x="0" y="0" width="30.2076554" height="1.69783622" rx="0.848918108"></rect>
                        <rect x="37.2799774" y="0" width="9.72002257" height="1.69783622" rx="0.848918108"></rect>
                        <rect x="0" y="4.18203868" width="47" height="1.69783622" rx="0.848918108"></rect>
                    </g>
                    <g transform="translate(0.000000, 35.024574)" id="Rectangle">
                        <rect x="16.7923446" y="4.18203868" width="30.2076554" height="1.69783622" rx="0.848918108"></rect>
                        <rect x="0" y="4.18203868" width="9.72002257" height="1.69783622" rx="0.848918108"></rect>
                        <rect x="0" y="0" width="47" height="1.69783622" rx="0.848918108"></rect>
                    </g>
                    <g transform="translate(0.000000, 55.751580)" id="Path">
                        <path d="M1.37468259,1.69783622 L45.6253174,1.69783622 C46.385592,1.69783622 47,1.31805706 47,0.848918108 L47,0.848918108 C47,0.379779154 46.385592,0 45.6253174,0 L1.37468259,0 C0.614407975,0 0,0.379779154 0,0.848918108 L0,0.848918108 C0,1.31805706 0.614407975,1.69783622 1.37468259,1.69783622 Z"></path>
                        <path d="M1.37468259,5.88434289 L45.6253174,5.88434289 C46.385592,5.88434289 47,5.50456373 47,5.03542478 L47,5.03542478 C47,4.56628582 46.385592,4.18650667 45.6253174,4.18650667 L1.37468259,4.18650667 C0.614407975,4.18650667 0,4.56628582 0,5.03542478 L0,5.03542478 C0,5.50456373 0.614407975,5.88434289 1.37468259,5.88434289 Z"></path>
                        <path d="M22.8347597,10.0663816 L45.6253174,10.0663816 C46.385592,10.0663816 47,9.68660241 47,9.21746346 L47,9.21746346 C47,8.7483245 46.385592,8.36854535 45.6253174,8.36854535 L22.8347597,8.36854535 C22.0744851,8.36854535 21.4600771,8.7483245 21.4600771,9.21746346 L21.4600771,9.21746346 C21.4600771,9.68660241 22.0744851,10.0663816 22.8347597,10.0663816 Z"></path>
                        <path d="M22.8347597,14.2484202 L45.6253174,14.2484202 C46.385592,14.2484202 47,13.8686411 47,13.3995021 L47,13.3995021 C47,12.9303632 46.385592,12.550584 45.6253174,12.550584 L22.8347597,12.550584 C22.0744851,12.550584 21.4600771,12.9303632 21.4600771,13.3995021 L21.4600771,13.3995021 C21.4600771,13.8686411 22.0744851,14.2484202 22.8347597,14.2484202 Z"></path>
                    </g>
                </g>
                <path d="M107,23.5 C107,24.8841808 105.879473,26 104.5,26 C103.120527,26 102,24.8794727 102,23.5 C102,22.1205273 103.120527,21 104.5,21 C105.879473,21 107,22.1205273 107,23.5 Z" id="Path" fill="#FFFFFF"></path>
                <g id="Group" transform="translate(4.000000, 55.939667)" fill="#C2EBFF">
                    <path d="M2.93251152,0.852687558 L3.1881558,0.845135567 C4.19439556,0.815410223 5.03421121,1.60703157 5.06393656,2.61327133 C5.06501135,2.64965454 5.06499609,2.68606177 5.06389078,2.72244406 L5.05946074,2.86826367 C5.02893766,3.87296381 4.22116579,4.68005863 3.2164404,4.70973923 L2.96079613,4.71729123 C1.95455637,4.74701657 1.11474071,3.95539522 1.08501537,2.94915546 C1.08394057,2.91277226 1.08395584,2.87636502 1.08506114,2.83998273 L1.08949119,2.69416312 C1.12001427,1.68946298 1.92778614,0.882368165 2.93251152,0.852687558 Z" id="Rectangle" transform="translate(3.074476, 2.781213) rotate(32.470000) translate(-3.074476, -2.781213) "></path>
                    <path d="M5.92505754,7.55668777 C6.105641,7.90807732 5.94881852,8.32618641 5.573395,8.49520923 C5.19797148,8.66423205 4.75126502,8.51744907 4.57068156,8.16605952 C4.3900981,7.81466997 4.54692058,7.39656089 4.92234409,7.22753807 C5.29776761,7.05851525 5.74447407,7.20529822 5.92505754,7.55668777 Z" id="Path"></path>
                    <path d="M2.71257276,14.1441298 C3.0547309,14.8068772 2.75534253,15.6075116 2.04726526,15.9277654 C1.339188,16.2480192 0.483792646,15.9677971 0.141634505,15.3050497 C-0.200523637,14.6423024 0.0988647369,13.8416679 0.806942002,13.5214142 C1.51501927,13.2011604 2.37041462,13.4813825 2.71257276,14.1441298 Z" id="Path"></path>
                </g>
                <g id="Group" transform="translate(20.000000, 61.000000)">
                    <g>
                        <path d="M9.8410596,9.33125285 C9.8410596,9.33125285 13.4701987,9.88611482 13.9116998,14.0764325 C14.3532009,18.2667501 14.8918322,28.9334167 14.8918322,28.9334167 C14.8918322,28.9334167 15.0198675,32.1072272 12.2384106,33.438896 L9.39514349,23.4069914 L9.83664459,9.33125285 L9.8410596,9.33125285 Z" id="Path" fill="#3B4956"></path>
                        <path d="M9.8410596,9.33125285 C9.8410596,9.33125285 12.8565121,9.75738685 13.7704194,13.2197256 C13.7704194,13.2197256 15.1434879,17.077126 14.6225166,22.3150231 C14.6225166,22.3150231 15.4746137,10.5253158 9.98233996,10.1435708 L9.8410596,9.33569175 L9.8410596,9.33125285 Z" id="Path" fill="#3B4956"></path>
                        <rect id="Rectangle" fill="#FE9E80" x="10.397351" y="57.1736718" width="1.64238411" height="2.18837563"></rect>
                        <path d="M7.11258278,31.0995979 L10.8653422,43.8614233 L10.1059603,59.8725205 L12.0838852,59.9479817 L15.0286976,43.6705508 C15.0286976,43.6705508 13.5143488,28.3741158 11.6203091,25.5776115 L5.68653422,26.3411016 L7.11258278,31.0995979 L7.11258278,31.0995979 Z" id="Path" fill="#062E5B"></path>
                        <rect id="Rectangle" fill="#FE9E80" x="3.22295806" y="57.1736718" width="1.64238411" height="2.18837563"></rect>
                        <path d="M2.6401766,23.0873909 C2.6401766,23.0873909 -0.136865342,21.0233044 3.200883,58.8471355 L4.92715232,59.1001526 L8.24724062,24.5122765 L2.6401766,23.0873909 L2.6401766,23.0873909 Z" id="Path" fill="#062E5B"></path>
                        <path d="M1.94701987,15.4125401 C1.94701987,15.4125401 0.812362031,12.1277572 2.89624724,10.6984328 C4.98013245,9.26910831 10.9845475,9.14481923 12.781457,11.8081567 C14.4415011,14.267305 13.5011038,24.3302818 13.1258278,28.9955613 C13.1258278,28.9955613 7.19205298,30.32723 1.50993377,28.6138162 C1.50993377,28.6138162 2.90066225,23.3137746 1.95143488,15.4081012 L1.94701987,15.4125401 Z" id="Path" fill="#FFFFFF"></path>
                        <g transform="translate(6.374388, 0.081227)" id="Path">
                            <path d="M3.61236745,6.60888275 C3.61236745,6.60888275 3.31656171,8.36668548 4.01413346,10.2487773 C4.82649549,12.4415918 0.61898997,12.0687246 0.0891886455,10.8968561 C0.0891886455,10.8968561 -0.180127028,10.5284277 0.217223966,9.82264331 C0.610159948,9.11685887 1.45342706,6.24489329 0.504199683,4.69571865 L3.61236745,6.60444385 L3.61236745,6.60888275 Z" fill="#FE9E80"></path>
                            <path d="M0.870645599,5.71222579 C0.848570544,5.6012534 0.826495489,5.490281 0.795590411,5.3837475 L3.59912242,6.72429404 C3.56821734,6.95955551 3.51965222,7.54992866 3.58587739,8.30897984 C2.10243368,7.62095099 1.2326765,6.34698789 0.870645599,5.71222579 Z" fill="#F0736D"></path>
                            <path d="M5.9920584,4.14529558 C5.60353743,6.16943206 4.2702041,7.6120732 3.02075597,7.36793393 C1.76689284,7.12379466 0.221638977,4.88659117 0.614574959,2.86245469 C1.00751094,0.838318202 3.17969637,-0.209261208 4.43355951,0.0348780613 C5.68742264,0.27901733 6.38499438,2.11672019 5.99647341,4.14085668 L5.9920584,4.14529558 Z" fill="#FE9E80"></path>
                        </g>
                        <path d="M13.2362031,2.20682509 C13.2362031,2.20682509 13.218543,3.36093799 9.00220751,1.85615232 C9.00220751,1.85615232 7.85871965,1.46552949 8.13686534,4.23983936 L7.8013245,4.6260233 C7.8013245,4.6260233 7.77041943,3.47191039 7.29801325,3.68497739 C6.82560706,3.89804439 6.93156733,4.40407851 7.36423841,5.45609681 C7.36423841,5.45609681 7.41721854,6.2062702 7.27152318,6.45928726 C7.27152318,6.45928726 5.83664459,6.79220445 6.57836645,5.0477184 C6.57836645,5.0477184 4.20750552,0.631017075 7.63355408,0.355805535 C7.63355408,0.355805535 12.3399558,-1.20224689 13.2362031,2.20238619 L13.2362031,2.20682509 Z" id="Path" fill="#282F39"></path>
                        <path d="M6.75055188,9.3800807 C6.75055188,9.3800807 8.07505519,11.7282566 7.3200883,17.8850051 L6.43708609,27.5662368 C6.43708609,27.5662368 6.38852097,32.2315163 3.02869757,32.5644335 L0,32.5644335 C0,32.5644335 1.70419426,20.6770705 1.58057395,13.756832 C1.58057395,13.756832 1.26269316,9.18476929 6.7593819,9.37564181 L6.75055188,9.3800807 Z" id="Path" fill="#3B4956"></path>
                        <path d="M6.75055188,9.3800807 C6.75055188,9.3800807 8.20309051,11.9191291 7.3200883,17.8850051 L6.8785872,22.8343739 C6.8785872,22.8343739 6.81677704,11.328756 4.77704194,9.47329752 C4.77704194,9.47329752 6.02207506,9.23359714 6.75055188,9.3800807 Z" id="Path" fill="#282F39"></path>
                        <path d="M10,14.1430159 C9.598234,14.0453602 9.29801325,13.6858096 9.29801325,13.2507978 C9.29801325,12.7403248 9.70860927,12.3319464 10.2119205,12.3319464 C10.7152318,12.3319464 11.1258278,12.7447637 11.1258278,13.2507978 C11.1258278,13.4638648 11.0507726,13.6547374 10.9315673,13.8145376 C11.2317881,14.6890001 11.8233996,17.077126 11.5717439,21.8666946 L10.5386313,22.7722293 L9.36865342,21.8311834 C9.36865342,21.8311834 10.3311258,16.4956307 9.99558499,14.1430159 L10,14.1430159 Z" id="Path" fill="#64C4FF"></path>
                        <polygon id="Path" fill="#FFFFFF" points="10.0573951 12.2831186 9.3200883 14.4049108 8.39735099 13.6636152 8.86975717 12.5006245 9.77041943 12.0700516"></polygon>
                        <path d="M9.96909492,12.349702 L11.2935982,13.5881539 L11.7969095,12.860175 C11.7969095,12.860175 11.4966887,12.2254129 11.214128,12.1943406 C10.9315673,12.1632684 10.1236203,12.1144405 10.1236203,12.1144405 L9.96467991,12.3541409 L9.96909492,12.349702 Z" id="Path" fill="#FFFFFF"></path>
                        <path d="M11.1434879,22.9453463 C11.3863135,23.6422529 12.1412804,24.0062424 12.8344371,23.766542 C13.5275938,23.5224027 13.8896247,22.7633516 13.6512141,22.0664449 C13.4083885,21.3695383 12.6534216,21.0055488 11.9602649,21.2452492 C11.2671082,21.4893885 10.9050773,22.2484396 11.1434879,22.9453463 Z" id="Path" fill="#FE9E80"></path>
                        <polygon id="Path" fill="#3B4956" points="2.30463576 12.988903 1.34657837 24.9384105 11.3863135 23.682203 11.187638 21.5914831 4.7593819 21.4583162 5.1611479 15.7454573"></polygon>
                        <g transform="translate(11.395143, 6.710623)">
                            <path d="M0.348785872,2.50521853 C-0.0529801325,3.18880848 0.799116998,3.56611462 1.49227373,3.51284787 C2.18543046,3.45958112 2.59161148,2.56736307 2.53863135,1.87045643 C2.48565121,1.17354979 1.2803532,-0.051585456 0.587196468,0.00168129364 C-0.105960265,0.0549480433 1.22737307,1.00931064 0.348785872,2.50077963 L0.348785872,2.50521853 Z" id="Path" fill="#FE9E80"></path>
                            <polygon id="Rectangle" fill="#FE9E80" transform="translate(1.162557, 3.583125) rotate(167.890000) translate(-1.162557, -3.583125) " points="0.472204732 2.89380735 1.85443221 2.89227388 1.85290854 4.27244355 0.470681062 4.27397702"></polygon>
                            <path d="M2.00883002,3.55723683 L4.36644592,14.2816091 C4.36644592,14.2816091 4.82560706,15.9950229 3.78807947,16.5099348 C2.75055188,17.0248467 1.17880795,16.8384131 1.13465784,14.8897378 L0,3.77918162 L2.01324503,3.55723683 L2.00883002,3.55723683 Z" id="Path" fill="#3B4956"></path>
                        </g>
                        <polygon id="Path" fill="#282F39" points="6.74172185 24.2548205 2.93156733 24.405743 1.88962472 15.1728397 1.55408389 25.8838953 6.62251656 25.6441949"></polygon>
                        <path d="M6.98896247,21.5027051 L5.48344371,21.5027051 C5.48344371,21.5027051 6.90507726,13.6946874 4.77262693,9.47329752 C4.77262693,9.47329752 6.08388521,9.1714526 6.74613687,9.3800807 C6.74613687,9.3800807 7.74392936,18.0758776 6.98896247,21.5027051 Z" id="Path" fill="#282F39"></path>
                    </g>
                    <path d="M10.384106,58.2700791 C10.384106,58.2700791 9.37306843,59.4774587 10.2560706,61 L16,61 C16,61 15.9381898,59.0024969 12.781457,59.4774587 L12.1236203,58.7317242 C12.1236203,58.7317242 10.9183223,59.508531 10.384106,58.2700791 L10.384106,58.2700791 Z" id="Path" fill="#282F39"></path>
                    <path d="M3.20971302,58.2700791 C3.20971302,58.2700791 2.1986755,59.4774587 3.0816777,61 L8.82560706,61 C8.82560706,61 8.76379691,59.0024969 5.60706402,59.4774587 L4.94922737,58.7317242 C4.94922737,58.7317242 3.74392936,59.508531 3.20971302,58.2700791 L3.20971302,58.2700791 Z" id="Path" fill="#282F39"></path>
                </g>
                <g id="Group" transform="translate(44.000000, 59.000000)">
                    <g transform="translate(0.000000, 10.153651)">
                        <g transform="translate(3.686949, 13.722670)" fill="#FE9E80">
                            <polygon id="Rectangle" transform="translate(0.850467, 0.947390) rotate(-29.400000) translate(-0.850467, -0.947390) " points="0.317943382 0.160015062 1.36739467 0.170352929 1.38299137 1.73476414 0.333540078 1.72442627"></polygon>
                            <path d="M0.644272177,2.69879007 C0.35980637,2.20117005 0.538744539,1.57354121 1.04344194,1.29559129 C1.5527275,1.01764137 2.19506964,1.19248084 2.47953545,1.68561779 C2.76400126,2.1832378 2.58506309,2.81086665 2.08036569,3.08881656 C1.57108013,3.36676648 0.928737985,3.19192702 0.644272177,2.69879007 Z" id="Path"></path>
                        </g>
                        <polygon id="Path" fill="#1F4C72" points="7.65304785 3.35781433 2.48678173 7.83191139 5.16167795 14.3592514 3.91369893 14.9106682 0 7.63913967 6.34083461 0"></polygon>
                    </g>
                    <g transform="translate(13.346952, 10.826111)">
                        <g transform="translate(1.351316, 13.726786)" fill="#FE9E80">
                            <polygon id="Rectangle" transform="translate(1.767504, 0.947390) rotate(-150.600000) translate(-1.767504, -0.947390) " points="1.25057627 0.170352929 2.30002756 0.160015062 2.28443086 1.72442627 1.23497957 1.73476414"></polygon>
                            <path d="M1.97051012,2.69019134 C2.25497592,2.19257132 2.07603776,1.56494248 1.57134036,1.28699256 C1.06664296,1.00904264 0.419712652,1.1838821 0.135246844,1.67701906 C-0.149218963,2.17463907 0.0297192063,2.80226791 0.534416606,3.08021783 C1.03911401,3.35816775 1.68604431,3.18332829 1.97051012,2.69019134 Z" id="Path"></path>
                        </g>
                        <polygon id="Path" fill="#1F4C72" points="0 3.35781433 5.16626611 7.83191139 2.48678173 14.3592514 3.73934892 14.9061851 7.65304785 7.63913967 1.31221324 0"></polygon>
                    </g>
                    <path d="M12.5761416,2.01240841 C12.3972034,2.0751713 12.2228534,2.15138337 12.0576797,2.24104463 C10.3279441,3.16455565 9.27266769,5.08778976 8.70373607,6.86756584 C8.36880052,7.92108569 8.26327289,9.06874987 8.58444396,10.1222697 C8.90561503,11.1757896 9.70395456,12.126199 10.7729954,12.4758779 C11.8420363,12.8255568 13.1588377,12.480361 13.7736509,11.561333 C14.2370548,10.8619751 14.2737601,9.95191332 14.764693,9.27048771 C15.1822154,8.69217256 15.9209089,8.26179849 15.9622023,7.55795757 C15.9943194,6.99757468 15.5446799,6.51788691 15.4620931,5.96198708 C15.3519773,5.23573084 15.8842036,4.5587883 15.9163207,3.828049 C15.9576142,2.99868231 15.315272,2.22759545 14.5123443,1.95412859 C13.8883548,1.74342462 13.2001311,1.79273832 12.5761416,2.01689148 L12.5761416,2.01240841 Z" id="Path" fill="#81CAE3"></path>
                    <g transform="translate(3.980125, 57.660672)" id="Path">
                        <path d="M0.36027273,2.22359934 L0.649326696,1.87840348 L0.603445114,0 L1.91565835,0 L1.72754387,1.80667446 C1.72754387,1.80667446 3.31963476,2.6674226 3.2049308,4.72066554 L2.40659128,4.80584374 C2.40659128,4.80584374 0.938380661,2.30877754 0.36027273,2.21911628 L0.36027273,2.22359934 Z" fill="#FE9E80"></path>
                        <path d="M0.36027273,2.22359934 C0.36027273,2.22359934 -0.360068104,2.86467738 0.236392459,3.65817956 L0.61262143,5.33932825 L1.02096751,5.33932825 L1.33296226,3.75232389 C1.33296226,3.75232389 2.02118599,3.81508677 1.92483467,5.33932825 L4.08126902,5.33932825 C4.08126902,5.33932825 4.42538088,4.94033563 3.17740185,4.54582607 L2.52129523,4.42478336 C2.52129523,4.42478336 1.8009544,2.56431214 0.364860888,2.2280824 L0.36027273,2.22359934 Z" fill="#282F39"></path>
                    </g>
                    <g transform="translate(12.229633, 57.660672)" id="Path">
                        <path d="M0.36027273,2.22359934 L0.649326696,1.87840348 L0.603445114,0 L1.91565835,0 L1.72754387,1.80667446 C1.72754387,1.80667446 3.31963476,2.6674226 3.2049308,4.72066554 L2.40659128,4.80584374 C2.40659128,4.80584374 0.938380661,2.30877754 0.36027273,2.21911628 L0.36027273,2.22359934 Z" fill="#FE9E80"></path>
                        <path d="M0.36027273,2.22359934 C0.36027273,2.22359934 -0.360068104,2.86467738 0.236392459,3.65817956 L0.61262143,5.33932825 L1.02096751,5.33932825 L1.33296226,3.75232389 C1.33296226,3.75232389 2.02118599,3.81508677 1.92483467,5.33932825 L4.08126902,5.33932825 C4.08126902,5.33932825 4.42538088,4.94033563 3.17740185,4.54582607 L2.52129523,4.42478336 C2.52129523,4.42478336 1.8009544,2.56431214 0.364860888,2.2280824 L0.36027273,2.22359934 Z" fill="#282F39"></path>
                    </g>
                    <path d="M6.31330566,24.0870115 C6.31330566,24.0870115 3.8953463,20.6350529 4.4872187,58.8666157 L6.02883985,58.8666157 L11.1584007,25.6695328 L6.31330566,24.0870115 L6.31330566,24.0870115 Z" id="Path" fill="#BEDAFC"></path>
                    <path d="M8.96067293,24.7639541 C8.96067293,24.7639541 8.82761634,26.1716359 12.617435,58.8710988 L14.2278785,58.8710988 L15.6456194,24.6698098 L8.96067293,24.7639541 Z" id="Path" fill="#BEDAFC"></path>
                    <path d="M9.60760323,10.6961018 C8.89185056,10.7364494 8.1852742,10.8664582 7.50622679,11.0906114 C6.80882674,11.3192476 5.85448984,11.843766 5.72602141,12.6103698 C5.56543588,13.5562961 5.9141359,14.3946289 6.30412934,15.2419279 C6.77670964,16.2730324 7.15293861,17.2413741 7.48787415,18.3217923 C7.8228097,19.4022105 7.85492681,20.6485021 7.21717282,21.5899453 C6.66200568,22.4103459 5.859078,22.9931441 5.7168451,23.9659688 C5.63425825,24.5218687 6.06554512,25.252608 7.59340179,26.0819747 C8.85514529,26.7634003 10.2728862,26.7813325 11.718156,26.7813325 C14.154468,26.7813325 15.3290365,26.0864577 15.5905615,25.4139982 C15.9071444,24.6070469 15.7052655,23.696985 15.402447,22.8810675 C15.0996286,22.0696331 14.6958707,21.2761309 14.5995193,20.4153828 C14.3471706,18.1738512 16.2191392,15.963701 15.5630326,13.7983815 C15.1730391,12.4982932 13.9342364,11.5927144 12.6357876,11.1309589 C11.6676863,10.7857631 10.6261744,10.6467881 9.59842692,10.7005849 L9.60760323,10.6961018 Z" id="Path" fill="#1F4C72"></path>
                    <g transform="translate(9.592915, 1.537204)" id="Path">
                        <path d="M2.94193266,6.73356091 C2.94193266,6.73356091 2.31794315,8.35642978 3.6072156,10.3513929 C4.89648805,12.346356 0.643265412,12.2970423 0.0926864304,11.1179967 C0.0926864304,11.1179967 -0.187191219,10.7459025 0.225743018,10.0375785 C0.634089096,9.32477143 1.50583915,6.43767874 0.5239733,4.87757275 L2.94193266,6.73356091 L2.94193266,6.73356091 Z" fill="#FE9E80"></path>
                        <path d="M0.817615423,5.5769306 C0.817615423,5.5769306 1.35901809,6.7828746 2.78593528,7.71983481 C2.78593528,7.71983481 2.7951116,7.27601155 2.88228661,6.98012938 L0.817615423,5.5769306 Z" fill="#F0736D"></path>
                        <path d="M5.48377229,3.5685183 C5.48377229,5.5410661 4.46520118,7.14151966 3.20804584,7.14151966 C1.95089049,7.14151966 0.0422166904,5.32587907 0.0422166904,3.35333126 C0.0422166904,1.38078346 1.95089049,0 3.20804584,0 C4.46520118,0 5.48377229,1.60045356 5.48377229,3.57300136 L5.48377229,3.5685183 Z" fill="#FE9E80"></path>
                    </g>
                    <path d="M14.2278785,1.64479723 C14.2324667,1.71204318 14.2370548,1.77928913 14.2278785,1.84653507 C14.1636443,2.86867348 13.0900153,3.50078539 12.1494429,3.95357477 C11.2088704,4.40636415 10.1352414,5.05192525 10.0893598,6.07406366 C10.0618309,6.73755701 10.4931178,7.32932135 10.731702,7.95246713 C11.167577,9.10461437 10.8464059,10.4674656 10.0205375,11.3730443 C9.26349137,12.197928 8.24492025,13.5338808 7.00611754,13.5518131 C6.07930959,13.5652622 5.17544243,12.9421165 4.87721215,12.0813683 C4.51474765,11.0457807 4.9919161,9.91604881 5.57920035,8.98357167 C6.1664846,8.05109452 6.89141359,7.15448189 7.08870439,6.07854672 C7.24470177,5.23124778 7.05199913,4.33911821 7.27223072,3.50078539 C7.56128468,2.42036716 8.49726895,1.62686498 9.4470177,0.999236132 C10.2866506,0.44781936 11.2409875,-0.0498006533 12.2503823,0.00399610494 C13.1909548,0.0533098 14.1452917,0.748184594 14.2278785,1.64031417 L14.2278785,1.64479723 Z" id="Path" fill="#81CAE3"></path>
                    <path d="M5.31767533,9.97432863 C4.80838977,10.8395598 4.7946253,11.9648087 5.27638191,12.8434891 C5.76272668,13.7221695 6.73082805,14.327383 7.74939917,14.3901459 C8.34585973,14.4260104 8.93314398,14.2915185 9.52960454,14.2466878 C10.2453572,14.1928911 10.9702862,14.2780693 11.6860389,14.2691032 C12.6266113,14.2511709 13.5809482,14.0628823 14.3838759,13.5831945 C15.1868036,13.1035067 15.8199694,12.3144876 15.9667905,11.4089089 C16.0723181,10.7498986 15.9254971,10.0774391 16.0264365,9.4184288 C16.154905,8.56664679 16.6733668,7.62968658 16.1778458,6.91239648 C16.0218484,6.68376025 15.778676,6.52236998 15.6135023,6.30269988 C15.1179812,5.65265572 15.3795062,4.73362777 15.2143325,3.94012558 C14.9711601,2.77901222 14.328818,1.73894156 13.1313087,1.56858516 C11.9337994,1.39374569 10.181123,1.96309472 9.0294953,2.32173977 C8.12103998,2.60417275 7.68516496,7.871772 6.07472143,9.27048771 C5.72143325,9.43636105 5.45073192,9.7591416 5.3543806,10.1312358 L5.31767533,9.97881169 L5.31767533,9.97432863 Z" id="Path" fill="#81CAE3"></path>
                    <polygon id="Path" fill="#9DC5ED" points="6.02425169 58.8710988 9.84618746 34.191836 9.09372952 28.5969731"></polygon>
                </g>
                <g id="Group" transform="translate(0.000000, 30.000000)" fill="#B1D8E5">
                    <path d="M8.05217391,11.3478261 C7.93478261,11.3478261 7.82173913,11.3 7.73913043,11.2173913 L5.83913043,9.3173913 C5.66521739,9.14347826 5.66521739,8.86086957 5.83913043,8.68695652 C5.92173913,8.60434783 6.03478261,8.55652174 6.15217391,8.55652174 C6.26956522,8.55652174 6.3826087,8.60434783 6.46521739,8.68695652 L7.69565217,9.9173913 C7.79130435,10.0130435 7.9173913,10.0652174 8.05217391,10.0652174 C8.18695652,10.0652174 8.31304348,10.0130435 8.40869565,9.9173913 L11.5391304,6.78695652 C11.6217391,6.70434783 11.7347826,6.65652174 11.8521739,6.65652174 C11.9695652,6.65652174 12.0826087,6.70434783 12.1652174,6.78695652 C12.3391304,6.96086957 12.3391304,7.24347826 12.1652174,7.4173913 L8.36086957,11.2217391 C8.27826087,11.3043478 8.16521739,11.3521739 8.04782609,11.3521739 L8.05217391,11.3478261 Z" id="Path"></path>
                    <path d="M9,18 C4.03478261,18 0,13.9608696 0,9 C0,4.03913043 4.03913043,0 9,0 C13.9608696,0 18,4.03913043 18,9 C18,13.9608696 13.9608696,18 9,18 Z M9,0.886956522 C4.52608696,0.886956522 0.891304348,4.52608696 0.891304348,8.99565217 C0.891304348,13.4652174 4.53043478,17.1043478 9,17.1043478 C13.4695652,17.1043478 17.1086957,13.4652174 17.1086957,8.99565217 C17.1086957,4.52608696 13.4695652,0.886956522 9,0.886956522 Z" id="Shape"></path>
                </g>
                <g id="Group" transform="translate(161.000000, 15.000000)" fill="#B1D8E5">
                    <path d="M15.0100881,14.8700481 C13.4369646,14.8700481 11.9616058,14.2569419 10.8506429,13.1462421 C9.73968001,12.0355424 9.13087233,10.5605331 9.13087233,8.9877823 C9.13087233,7.41503147 9.74412386,5.93557942 10.8506429,4.82932247 C11.9616058,3.71862273 13.4369646,3.10995927 15.0100881,3.10995927 C16.5832116,3.10995927 18.0630142,3.72306553 19.1695332,4.82932247 C20.2804962,5.94002221 20.8937477,7.41947427 20.8937477,8.9877823 C20.8937477,10.5560903 20.2804962,12.0355424 19.1695332,13.1462421 C18.0585703,14.2569419 16.5832116,14.8700481 15.0100881,14.8700481 Z M15.0100881,3.96297668 C13.663601,3.96297668 12.4015472,4.48278415 11.4550067,5.43354313 C10.5040225,6.38430211 9.98409185,7.64605702 9.98409185,8.9877823 C9.98409185,10.3295076 10.5084663,11.5912625 11.4550067,12.5420215 C12.405991,13.4927805 13.6680449,14.0125879 15.0100881,14.0125879 C16.3521313,14.0125879 17.6141852,13.4883377 18.5651694,12.5420215 C19.5161537,11.5912625 20.0360843,10.3295076 20.0360843,8.9877823 C20.0360843,7.64605702 19.5117098,6.38430211 18.5651694,5.43354313 C17.618629,4.48722695 16.3565751,3.96297668 15.0100881,3.96297668 Z" id="Shape"></path>
                    <path d="M2.10514284,23.9955572 C1.54966139,23.9955572 1.02084304,23.7734173 0.620896388,23.3735653 C-0.183440763,22.5694187 -0.210103873,21.2854498 0.563126316,20.50796 L7.0644813,14.0081451 L7.14002678,13.9637171 C7.29111774,13.8659756 7.34000011,13.6616068 7.24667922,13.5061088 C5.19361975,9.97852647 5.77132047,5.50907071 8.65093635,2.63013699 C10.3440438,0.937430581 12.6059643,0 15.0100881,0 C17.4142118,0 19.6716885,0.932987782 21.3692398,2.63013699 C23.0667912,4.32728619 24,6.58422806 24,8.9877823 C24,11.3913365 23.0667912,13.6482784 21.3692398,15.3454276 C19.6761323,17.0425768 17.4142118,17.9755646 15.0100881,17.9755646 C13.4325207,17.9755646 11.868285,17.5534987 10.4862471,16.7493521 C10.4329209,16.7182525 10.3751508,16.7049241 10.3129369,16.7049241 C10.1973967,16.7049241 10.0907443,16.7626805 10.0285304,16.8559793 C10.0151988,16.8781933 10.0018673,16.8959645 9.9885357,16.9181785 L3.48273686,23.4313217 C3.11834102,23.7956312 2.62507349,24 2.10069899,24 L2.10514284,23.9955572 Z M5.82909054,16.6027397 C5.73576965,16.6027397 5.65133647,16.6382821 5.58912255,16.7049241 L1.17637785,21.1166235 C0.736436531,21.5564606 0.763099641,22.298408 1.23414792,22.7693447 C1.4652282,23.0003702 1.78518552,23.1336542 2.11403055,23.1336542 C2.41176861,23.1336542 2.68728741,23.0225842 2.88726074,22.8271011 L7.30444929,18.4154017 C7.36666322,18.3532025 7.40665788,18.2643465 7.40665788,18.1754906 C7.40665788,18.0866346 7.37110707,17.9977786 7.30444929,17.9355794 L6.08239008,16.7138097 C6.01573231,16.6471677 5.93129913,16.6116253 5.84242209,16.6116253 L5.82909054,16.6027397 Z M7.82882379,14.6034802 C7.73994676,14.6034802 7.65106972,14.6390226 7.5888558,14.7056646 L6.67786621,15.6164384 C6.61565228,15.6786375 6.57565762,15.7674935 6.57565762,15.8563495 C6.57565762,15.9452055 6.61120843,16.0340615 6.67786621,16.0962606 L7.89992542,17.3180304 C7.96658319,17.3846723 8.05101637,17.4202147 8.13989341,17.4202147 C8.22877044,17.4202147 8.31764747,17.3846723 8.3798614,17.3180304 L9.29085099,16.4072566 C9.35750876,16.3406146 9.39305958,16.2473158 9.38861572,16.1495742 C9.38417187,16.0518327 9.33973336,15.9629767 9.26418788,15.9007775 C9.02421989,15.7008515 8.82424656,15.5186968 8.6464925,15.3409848 C8.46873843,15.1632729 8.29098436,14.9677897 8.08656719,14.7234358 C8.02435326,14.6479082 7.93547623,14.6034802 7.83771149,14.5990374 L7.82437994,14.5990374 L7.82882379,14.6034802 Z M15.0100881,0.861902999 C12.8370446,0.861902999 10.7928729,1.7060348 9.25974403,3.23880044 C6.09127779,6.4109589 6.09127779,11.5690485 9.25974403,14.741207 C10.7928729,16.2739726 12.8370446,17.1181044 15.0100881,17.1181044 C17.1831315,17.1181044 19.2273033,16.2739726 20.7604321,14.741207 C22.293561,13.2084413 23.1378928,11.1647538 23.1378928,8.9922251 C23.1378928,6.81969641 22.293561,4.77600889 20.7604321,3.24324324 C19.2273033,1.7104776 17.1831315,0.866345798 15.0100881,0.866345798 L15.0100881,0.861902999 Z" id="Shape"></path>
                    <path d="M17.8985917,8.84116994 C17.6630675,8.84116994 17.4675381,8.65012958 17.4675381,8.41021844 C17.4675381,7.37060348 16.6232062,6.52647168 15.5833449,6.52647168 C15.3478208,6.52647168 15.1522913,6.33543132 15.1522913,6.09552018 C15.1522913,5.85560903 15.343377,5.66456868 15.5833449,5.66456868 C17.0942545,5.66456868 18.3252014,6.89522399 18.3252014,8.40577564 C18.3252014,8.64124398 18.1341158,8.83672714 17.8941478,8.83672714 L17.8985917,8.84116994 Z" id="Path"></path>
                </g>
                <g id="Group" transform="translate(149.000000, 13.000000)" fill="#B9E9FC">
                    <path d="M6.75554844,1.00477209 C8.42857149,1.02711616 9.77924792,2.3782215 9.8010608,4.05125155 L9.80296982,4.19767203 C9.82405347,5.81476988 8.53022832,7.14277837 6.91313047,7.16386201 C6.88737145,7.16419786 6.86160911,7.16419377 6.8358502,7.16384974 C5.16282715,7.14150567 3.81215073,5.79040033 3.79033784,4.11737028 L3.78842882,3.9709498 C3.76734518,2.35385195 5.06117033,1.02584346 6.67826817,1.00475982 C6.7040272,1.00442397 6.72978953,1.00442806 6.75554844,1.00477209 Z" id="Rectangle" transform="translate(6.795699, 4.084311) rotate(23.820000) translate(-6.795699, -4.084311) "></path>
                    <path d="M14.8902685,11.6454812 C14.603398,12.3155198 13.8498279,12.6216963 13.1990174,12.3243945 C12.5524884,12.0270926 12.2570547,11.2461205 12.5439251,10.5716446 C12.8307956,9.89716877 13.5843657,9.59542956 14.2351763,9.89273143 C14.8817052,10.1900333 15.1771389,10.9710054 14.8902685,11.6454812 Z" id="Path"></path>
                    <path d="M4.02344479,15.7012112 C3.55246346,16.8016718 2.31506707,17.298654 1.25321826,16.8149838 C0.19136945,16.3268763 -0.288175173,15.0444847 0.178524505,13.944024 C0.645224183,12.8435634 1.88690223,12.3465812 2.94875103,12.8302514 C4.01059984,13.3183589 4.49014447,14.6007505 4.02344479,15.7012112 L4.02344479,15.7012112 Z" id="Path"></path>
                </g>
                <path d="M161.960187,58.8451352 C161.771932,59.6512551 160.960985,60.1484428 160.154865,59.9601873 C159.348745,59.7719317 158.851557,58.9609847 159.039813,58.1548648 C159.228068,57.3487449 160.039015,56.8515572 160.845135,57.0398127 C161.651255,57.2280683 162.148443,58.0390153 161.960187,58.8451352 Z" id="Path" fill="#C2EBFF"></path>
            </g>
        </g>
    </g>
</svg>