<svg xmlns="http://www.w3.org/2000/svg" viewBox="0 0 980 268.47"><defs><style>.cls-1{font-size:140.42px;font-family:PingFang-SC-Bold, PingFang SC;font-weight:700;letter-spacing:0.02em;}.cls-1,.cls-2,.cls-3{fill:#0274be;}.cls-2{font-size:58px;font-family:PingFang-SC-Heavy, PingFang SC;font-weight:800;letter-spacing:0.04em;}.cls-4{fill:#fff;}</style></defs><g id="图层_2" data-name="图层 2"><g id="图层_1-2" data-name="图层 1"><text class="cls-1" transform="translate(291.91 149.54)">LitePress</text><text class="cls-2" transform="translate(306.29 229.07)">WordPress中国发行版</text><circle class="cls-3" cx="134.23" cy="134.23" r="134.23"/><path class="cls-4" d="M176.53,204.38h-16.2c-.38,0-.73.08-1.1.11H110.76a6.81,6.81,0,0,1-6.86-6.73V146.6h0V129.25h0V122c0-9.06-.34-18.14,0-27.18,1-25.76,28.55-40.64,48.63-24.09,17.15,14.14,14.49,41.3-4.41,53-5.65,3.49-11.36,6.89-17.09,10.25v0a11.29,11.29,0,0,0-1.63,1.19l-.93.57a13.37,13.37,0,0,0-4.43,18.38l.2.33c3.75,6.13,12.32,8,18.59,4.52,0,0,0,0,0,0l.24-.14c.08,0,.18-.07.26-.12l.09-.08a267.54,267.54,0,0,0,26.41-16.86c31.93-23.84,27.94-76.67-6.64-96.41A61.2,61.2,0,0,0,148.11,39a55.36,55.36,0,0,0-16.33-1.53,49.41,49.41,0,0,0-16.07,3.25,70.93,70.93,0,0,0-12.79,6.51C87.28,57.74,77.67,72.69,77.26,91.41c-.49,22-.51,38.19-.43,55.19h0v51.16c0,18.39,15.24,33.35,34,33.35h67.11s0-.09,0-.13a13.13,13.13,0,0,0,11.85-13v-.38A13.18,13.18,0,0,0,176.53,204.38Z"/></g></g></svg>