<svg id="Layer_1" data-name="Layer 1" xmlns="http://www.w3.org/2000/svg" viewBox="0 0 150 150"><defs><style>.cls-1{fill:#3f5a6b;}.cls-2{fill:#00719e;}</style></defs><title>wordfence-central-icon</title><path class="cls-1" d="M133.11,60.11A14.89,14.89,0,1,0,148,75,14.91,14.91,0,0,0,133.11,60.11Z"/><path class="cls-1" d="M16.89,60.11A14.89,14.89,0,1,0,31.78,75,14.91,14.91,0,0,0,16.89,60.11Z"/><path class="cls-1" d="M89.89,16.89A14.89,14.89,0,1,0,75,31.78,14.91,14.91,0,0,0,89.89,16.89Z"/><path class="cls-1" d="M60.11,133.11A14.89,14.89,0,1,0,75,118.22,14.91,14.91,0,0,0,60.11,133.11Z"/><path class="cls-2" d="M109.71,87.3c.33-.92.62-1.86.87-2.81s.47-1.92.65-2.88l-4.49-5.2c0-1,0-1.94,0-2.9l4.49-5.22a36.63,36.63,0,0,0-1.54-5.68l-6.5-2.26c-.32-.61-.68-1.2-1-1.79-.14-.24-.26-.48-.41-.71L103,51.09a37.14,37.14,0,0,0-4.16-4.16l-6.76,1.29c-.2-.13-.43-.24-.64-.37-.61-.37-1.23-.74-1.88-1.08L87.3,40.29c-.92-.33-1.86-.62-2.81-.87s-1.92-.47-2.88-.65l-5.2,4.49c-1,0-1.94,0-2.9,0l-5.22-4.49a36.63,36.63,0,0,0-5.68,1.54l-2.26,6.5c-.61.32-1.2.68-1.79,1-.24.14-.48.26-.71.41L51.09,47a37.14,37.14,0,0,0-4.16,4.16l1.29,6.76c-.13.2-.24.43-.37.64-.37.61-.74,1.23-1.08,1.88L40.29,62.7c-.32.92-.62,1.86-.87,2.81s-.47,1.92-.65,2.88l4.49,5.2c0,1,0,1.94,0,2.9l-4.49,5.22a37.78,37.78,0,0,0,1.54,5.68l6.5,2.26c.32.61.68,1.2,1,1.79.14.23.26.48.41.71L47,98.91a37.14,37.14,0,0,0,4.16,4.16l6.76-1.29c.2.13.43.24.64.37.61.37,1.23.74,1.88,1.08l2.27,6.48c.92.32,1.86.62,2.81.87s1.92.47,2.88.65l5.2-4.49c1,0,1.94,0,2.9,0l5.22,4.49a36.63,36.63,0,0,0,5.68-1.54l2.26-6.5c.61-.32,1.2-.68,1.79-1,.23-.14.48-.26.71-.41L98.91,103a37.14,37.14,0,0,0,4.16-4.16l-1.29-6.76c.13-.2.24-.43.37-.64.37-.61.74-1.23,1.08-1.88Zm-7.46-5a28.27,28.27,0,1,1-1.93-19.62A28,28,0,0,1,102.25,82.26Z"/><path class="cls-2" d="M81.07,52.25c-.77-.2-1.54-.37-2.3-.49A23.61,23.61,0,0,0,52.25,68.94c-.2.76-.36,1.53-.49,2.29A23.61,23.61,0,0,0,68.94,97.75c.76.2,1.53.36,2.29.49a23.55,23.55,0,0,0,27-19.47,23,23,0,0,0,0-7.5A23.52,23.52,0,0,0,81.07,52.25Z"/></svg>