<?xml version="1.0" encoding="utf-8"?>
<!-- Generator: Adobe Illustrator 23.0.4, SVG Export Plug-In . SVG Version: 6.00 Build 0)  -->
<svg version="1.1" id="Layer_1" xmlns="http://www.w3.org/2000/svg" xmlns:xlink="http://www.w3.org/1999/xlink" x="0px" y="0px"
	 viewBox="0 0 2230 399" style="enable-background:new 0 0 2230 399;" xml:space="preserve">
<style type="text/css">
	.st0{fill:#00719E;}
	.st1{fill:#2E2E2E;}
	.st2{fill:#FFFFFF;}
	.st3{fill:#218DC1;}
	.st4{fill:#1A719D;}
	.st5{fill:#2B2C2B;}
</style>
<g>
	<path d="M772.6,373.8l2.6-2.9c5.8,5.3,11.1,7.8,18.8,7.8c7.9,0,13.3-4.4,13.3-10.4v-0.2c0-5.6-2.9-8.8-14.9-11.2
		c-12.6-2.6-17.7-6.8-17.7-14.8V342c0-7.8,7.1-13.8,16.9-13.8c7.7,0,12.7,2.1,18,6.4l-2.5,3.1c-5-4.3-9.9-5.9-15.7-5.9
		c-7.7,0-12.8,4.4-12.8,9.9v0.2c0,5.6,2.9,8.9,15.3,11.5c12.2,2.5,17.3,6.8,17.3,14.5v0.2c0,8.5-7.3,14.3-17.4,14.3
		C785.3,382.3,778.9,379.5,772.6,373.8"/>
	<path d="M853,360.6c-0.5-7.7-5-14.9-13.7-14.9c-7.6,0-13.4,6.4-14.1,14.9H853z M821.3,362.4v-0.2c0-11.1,7.8-20,18.2-20
		c10.7,0,17.6,8.7,17.6,20c0,0.7,0,0.9-0.1,1.5h-31.7c0.7,9.5,7.5,15.1,15,15.1c5.9,0,10-2.6,13.1-6l2.6,2.3
		c-3.9,4.2-8.5,7.2-15.8,7.2C830,382.4,821.3,374.4,821.3,362.4"/>
	<path d="M865.8,362.5v-0.2c0-10.7,8.6-20,19.5-20c7.2,0,11.7,3.3,15.3,7.1l-2.6,2.7c-3.3-3.4-7.1-6.3-12.8-6.3
		c-8.7,0-15.5,7.3-15.5,16.4v0.2c0,9.2,7,16.6,15.8,16.6c5.4,0,9.6-2.8,12.8-6.4l2.6,2.3c-3.9,4.4-8.6,7.6-15.6,7.6
		C874.3,382.4,865.8,373.2,865.8,362.5"/>
	<path d="M911.3,366.6v-23.4h3.7V366c0,7.9,4.4,13.1,12.2,13.1c7.5,0,13.3-5.7,13.3-13.7v-22.1h3.7v38.3h-3.7v-7.1
		c-2.6,4.5-6.8,8-13.8,8C916.9,382.4,911.3,375.8,911.3,366.6"/>
	<path d="M958.8,343.2h3.7v10.9c3-6.8,9.4-11.8,17-11.5v4.1h-0.4c-8.9,0-16.6,6.7-16.6,19.1v15.7h-3.7V343.2z"/>
	<path d="M990.1,343.2h3.7v38.3h-3.7V343.2z M989.6,328.2h4.6v5h-4.6V328.2z"/>
	<path d="M1009,343.2h3.7v7.1c2.6-4.5,6.8-8,13.8-8c9.7,0,15.3,6.6,15.3,15.8v23.4h-3.7v-22.7c0-7.9-4.4-13.1-12.2-13.1
		c-7.5,0-13.3,5.7-13.3,13.7v22.1h-3.7V343.2z"/>
	<path d="M1087.9,360.6v-0.2c0-8.9-7.9-14.6-15.8-14.6c-8,0-14.8,5.6-14.8,14.5v0.2c0,8.6,6.9,14.6,14.8,14.6
		C1080,375.1,1087.9,369.3,1087.9,360.6 M1055,387.8l2.2-3c4.6,3.5,9.8,5.4,15.5,5.4c8.8,0,15-5,15-14.9v-5.6
		c-3.3,4.7-8.4,8.9-16,8.9c-9.2,0-18.4-7.1-18.4-18v-0.1c0-11,9.2-18.2,18.4-18.2c7.7,0,12.8,4.1,16,8.6v-7.7h3.7v32.3
		c0,5.6-1.8,9.9-4.9,13c-3.3,3.3-8.3,5.1-13.9,5.1C1066.2,393.7,1060.2,391.7,1055,387.8"/>
	<path d="M1126.3,392.1l1.3-3.2c2,1,3.7,1.4,6.5,1.4c4,0,6.6-2.3,9.5-9l-18.4-38.1h4.3l15.9,34.2l13.8-34.2h4.1l-16.6,39.6
		c-3.4,8-7.3,10.9-12.8,10.9C1131,393.7,1128.9,393.2,1126.3,392.1"/>
	<path d="M1204.6,362.5v-0.2c0-9.2-6.9-16.6-15.8-16.6c-9.1,0-15.6,7.4-15.6,16.4v0.2c0,9.2,6.9,16.6,15.8,16.6
		C1198.1,379,1204.6,371.5,1204.6,362.5 M1169.3,362.5v-0.2c0-10.7,8.3-20,19.7-20c11.3,0,19.6,9.2,19.6,19.9v0.2
		c0,10.7-8.3,20-19.7,20C1177.5,382.4,1169.3,373.2,1169.3,362.5"/>
	<path d="M1219.9,366.6v-23.4h3.7V366c0,7.9,4.4,13.1,12.2,13.1c7.5,0,13.3-5.7,13.3-13.7v-22.1h3.7v38.3h-3.7v-7.1
		c-2.6,4.5-6.8,8-13.8,8C1225.5,382.4,1219.9,375.8,1219.9,366.6"/>
	<path d="M1267.4,343.2h3.7v10.9c3-6.8,9.4-11.8,17-11.5v4.1h-0.4c-8.9,0-16.6,6.7-16.6,19.1v15.7h-3.7V343.2z"/>
	<polygon class="st0" points="1317.2,329 1327.1,329 1339.7,367.9 1352.6,328.8 1360.4,328.8 1373.3,367.9 1385.8,329 1395.5,329 
		1377.2,381.9 1369.3,381.9 1356.3,344.1 1343.4,381.9 1335.5,381.9 	"/>
	<path class="st0" d="M1430.8,361.9v-0.2c0-7-5-12.8-12.2-12.8c-7.3,0-11.9,5.7-11.9,12.6v0.2c0,6.9,5,12.8,12.1,12.8
		C1426.1,374.5,1430.8,368.7,1430.8,361.9 M1397.6,361.9v-0.2c0-11.3,9-20.7,21.2-20.7c12.2,0,21.1,9.2,21.1,20.6v0.2
		c0,11.3-9,20.6-21.2,20.6C1406.5,382.4,1397.6,373.2,1397.6,361.9"/>
	<path class="st0" d="M1449.8,341.9h9.1v8.9c2.5-5.9,7.1-10,14-9.7v9.6h-0.5c-8,0-13.5,5.2-13.5,15.7v15.1h-9.1V341.9z"/>
	<path class="st0" d="M1510.5,361.8v-0.2c0-7.7-5.4-12.7-11.5-12.7c-6.2,0-11.4,4.8-11.4,12.7v0.2c0,7.7,5.3,12.7,11.4,12.7
		C1505.1,374.4,1510.5,369.3,1510.5,361.8 M1478.4,361.8v-0.2c0-13.1,8.9-20.6,18.4-20.6c6.5,0,10.7,3.3,13.5,7v-21.3h9.1v54.8h-9.1
		v-6.6c-2.9,4.1-7.1,7.4-13.5,7.4C1487.5,382.3,1478.4,374.9,1478.4,361.8"/>
	<path class="st0" d="M1552.5,356.3c7,0,11.3-3.9,11.3-9.4v-0.1c0-6.2-4.4-9.4-11.3-9.4h-10.7v18.9H1552.5z M1532.5,329h20.7
		c12.2,0,20,7,20,17.6v0.2c0,11.8-9.5,17.9-21,17.9h-10.4v16.9h-9.2V329z"/>
	<path class="st0" d="M1582.3,341.9h9.1v8.9c2.5-5.9,7.1-10,14-9.7v9.6h-0.5c-8,0-13.5,5.2-13.5,15.7v15.1h-9.1V341.9z"/>
	<path class="st0" d="M1639.9,358.9c-0.6-5.9-4.1-10.4-10.1-10.4c-5.6,0-9.5,4.3-10.3,10.4H1639.9z M1610.6,361.8v-0.2
		c0-11.3,8-20.6,19.4-20.6c12.6,0,19,9.9,19,21.3c0,0.8-0.1,1.7-0.2,2.6h-29.1c1,6.5,5.6,10.1,11.4,10.1c4.4,0,7.6-1.7,10.7-4.7
		l5.3,4.7c-3.8,4.5-8.9,7.4-16.2,7.4C1619.4,382.4,1610.6,374.1,1610.6,361.8"/>
	<path class="st0" d="M1655.6,376.3l4.1-6.2c4.3,3.2,8.9,4.9,13,4.9c3.9,0,6.2-1.7,6.2-4.3v-0.2c0-3.1-4.2-4.1-8.9-5.6
		c-5.9-1.7-12.4-4.1-12.4-11.6v-0.2c0-7.5,6.2-12.1,14.1-12.1c5,0,10.4,1.7,14.6,4.5l-3.6,6.5c-3.8-2.3-7.9-3.8-11.2-3.8
		c-3.5,0-5.6,1.6-5.6,4v0.2c0,2.9,4.3,4.1,8.9,5.6c5.8,1.8,12.3,4.4,12.3,11.6v0.2c0,8.3-6.5,12.5-14.7,12.5
		C1666.8,382.3,1660.5,380.2,1655.6,376.3"/>
	<path class="st0" d="M1693.1,376.3l4.1-6.2c4.3,3.2,8.9,4.9,13,4.9c3.9,0,6.2-1.7,6.2-4.3v-0.2c0-3.1-4.2-4.1-8.9-5.6
		c-5.9-1.7-12.4-4.1-12.4-11.6v-0.2c0-7.5,6.2-12.1,14.1-12.1c5,0,10.4,1.7,14.6,4.5l-3.6,6.5c-3.8-2.3-7.9-3.8-11.2-3.8
		c-3.5,0-5.6,1.6-5.6,4v0.2c0,2.9,4.3,4.1,8.9,5.6c5.8,1.8,12.3,4.4,12.3,11.6v0.2c0,8.3-6.5,12.5-14.7,12.5
		C1704.3,382.3,1698.1,380.2,1693.1,376.3"/>
	<polygon points="1755.8,343.2 1760,343.2 1771.5,376.9 1783.1,343.1 1786,343.1 1797.6,376.9 1809.1,343.2 1813.1,343.2 
		1799.1,381.8 1795.9,381.8 1784.5,349 1773,381.8 1769.9,381.8 	"/>
	<path d="M1851.7,360.6c-0.5-7.7-5-14.9-13.7-14.9c-7.6,0-13.4,6.4-14.1,14.9H1851.7z M1820,362.4v-0.2c0-11.1,7.8-20,18.2-20
		c10.7,0,17.6,8.7,17.6,20c0,0.7,0,0.9-0.1,1.5h-31.7c0.7,9.5,7.5,15.1,15,15.1c5.9,0,10-2.6,13.1-6l2.6,2.3
		c-3.9,4.2-8.5,7.2-15.8,7.2C1828.7,382.4,1820,374.4,1820,362.4"/>
	<path d="M1901.3,362.5v-0.2c0-10.1-7-16.5-15-16.5c-8,0-15.6,6.7-15.6,16.4v0.2c0,9.8,7.7,16.4,15.6,16.4
		C1894.6,378.9,1901.3,372.8,1901.3,362.5 M1870.9,373.2v8.3h-3.7v-54.8h3.7v25.1c3.3-5,8.2-9.5,15.8-9.5c9.2,0,18.6,7.4,18.6,19.9
		v0.2c0,12.5-9.4,20-18.6,20C1879,382.4,1874,378.1,1870.9,373.2"/>
	<path d="M1914.2,376.7l2.2-2.9c4.2,3.2,8.9,5,13.7,5c5.2,0,9.2-2.9,9.2-7.3v-0.2c0-4.5-4.8-6.2-10.1-7.7
		c-6.2-1.8-13.1-3.7-13.1-10.5v-0.2c0-6.2,5.2-10.6,12.6-10.6c4.6,0,9.8,1.7,13.6,4.2l-2,3.1c-3.5-2.3-7.7-3.8-11.8-3.8
		c-5.3,0-8.7,2.9-8.7,6.7v0.2c0,4.3,5.2,5.9,10.7,7.4c6.2,1.7,12.6,4,12.6,10.7v0.2c0,6.8-5.9,11.2-13.2,11.2
		C1924.3,382.3,1918.2,380,1914.2,376.7"/>
	<path d="M1956,343.2h3.7v38.3h-3.7V343.2z M1955.6,328.2h4.6v5h-4.6V328.2z"/>
	<path d="M1977,371.7v-25.1h-5.6v-3.4h5.6V331h3.7v12.2h13.4v3.4h-13.4v24.7c0,5.5,3.2,7.4,7.7,7.4c1.9,0,3.5-0.4,5.6-1.4v3.5
		c-2,0.9-3.8,1.4-6.2,1.4C1981.8,382.2,1977,379,1977,371.7"/>
	<path d="M2033.7,360.6c-0.5-7.7-5-14.9-13.7-14.9c-7.6,0-13.4,6.4-14.1,14.9H2033.7z M2001.9,362.4v-0.2c0-11.1,7.8-20,18.2-20
		c10.7,0,17.6,8.7,17.6,20c0,0.7,0,0.9-0.1,1.5h-31.7c0.7,9.5,7.5,15.1,15,15.1c5.9,0,10-2.6,13.1-6l2.6,2.3
		c-3.9,4.2-8.5,7.2-15.8,7.2C2010.7,382.4,2001.9,374.4,2001.9,362.4"/>
	<path class="st1" d="M2141.5,196.9c-1.1-8.3-4.4-15.4-9.8-21.3c-5.4-5.9-12.8-8.8-22.2-8.8c-17.5,0-27.7,10-30.6,30.1H2141.5z
		 M2150.6,243.3l37.1,11.9c-15.5,24.4-39.8,36.6-72.9,36.6c-26.4,0-46.9-6.9-61.7-20.9c-14.8-13.9-22.2-32.2-22.2-54.8
		c0-23.1,7.6-42.3,22.9-57.8c15.2-15.4,34.6-23.2,58.2-23.2c17.1,0,31.9,4.3,44.3,13c12.5,8.6,21.1,19.4,25.9,32.3
		c4.8,12.9,7.3,27.2,7.3,43.1h-111.4c0.7,13.6,5,23.2,12.9,28.9c7.9,5.7,16.2,8.5,24.9,8.5C2127.4,260.9,2139,255,2150.6,243.3
		 M2006.5,138.8v60.7h-34c-7.7-16.7-19.8-25-36.3-25c-10.5,0-18.9,3.5-25.1,10.4c-6.2,7-9.3,16.2-9.3,27.9c0,14.1,3.3,24.5,9.9,31.3
		c6.6,6.7,14.7,10.1,24.2,10.1c7.6,0,14.8-2.2,21.6-6.6c6.8-4.4,12.2-10.2,16.4-17.4l37.1,16.3c-13.8,30.1-38,45.2-72.6,45.2
		c-26.1,0-46.8-7.1-62.3-21.3c-15.5-14.2-23.2-33.2-23.2-57c0-23.8,7.6-42.5,22.8-56.3c15.2-13.8,32.9-20.6,53.1-20.6
		c16.2,0,31.3,4.9,45.3,14.7v-12.4H2006.5z M1654.3,173.3v-34.4h70.6v13.9c14.4-10.8,29-16.2,43.9-16.2c30.2,0,45.3,19.3,45.3,57.8
		v59.6h22.6v34.4h-70.3v-90.5c0-8.1-1.1-13.7-3.3-16.7c-2.2-3-5.8-4.5-10.9-4.5c-8.9,0-17.9,3.2-27.2,9.7v67.5h23v34.4h-93.6v-34.4
		h22.9v-80.6H1654.3z M1584.4,196.9c-1.1-8.3-4.4-15.4-9.8-21.3c-5.4-5.9-12.8-8.8-22.2-8.8c-17.5,0-27.7,10-30.6,30.1H1584.4z
		 M1593.5,243.3l37.1,11.9c-15.5,24.4-39.8,36.6-72.9,36.6c-26.4,0-46.9-6.9-61.7-20.9c-14.8-13.9-22.2-32.2-22.2-54.8
		c0-23.1,7.6-42.3,22.9-57.8c15.2-15.4,34.6-23.2,58.2-23.2c17.1,0,31.9,4.3,44.3,13c12.5,8.6,21.1,19.4,25.9,32.3
		c4.8,12.9,7.3,27.2,7.3,43.1H1521c0.7,13.6,5,23.2,12.9,28.9c7.9,5.7,16.2,8.5,24.9,8.5C1570.3,260.9,1581.8,255,1593.5,243.3
		 M1452.5,253.9v34.4h-92.8v-34.4h21.6v-80.6h-20.1v-34.4h20.1v-13.7c0-15.8,4.9-28.9,14.6-39.5c9.7-10.6,24.2-15.8,43.5-15.8
		c23.4,0,40,7,49.9,21l-34.6,27c-3.1-10.7-7.5-16.1-13.3-16.1c-8.2,0-12.4,6.9-12.4,20.7v16.4h23.5v34.4H1429v80.6H1452.5z"/>
	<path class="st0" d="M1287.6,213.3c0-14.3-3.1-24.5-9.2-30.6c-6.1-6.1-13.1-9.1-20.9-9.1c-9.4,0-16.6,3.6-21.7,10.9
		c-5.1,7.3-7.6,16.8-7.6,28.7c0,11.2,2.5,20.7,7.6,28.3c5,7.7,12.4,11.5,21.9,11.5c7.9,0,14.9-3.1,20.9-9.3
		C1284.6,237.4,1287.6,227.3,1287.6,213.3 M1359.4,253.9v34.4h-72.3v-17.8c-13.3,13.3-27.7,20-43.3,20c-18.6,0-34.1-7.6-46.3-22.7
		c-12.3-15.1-18.4-33.5-18.4-55c0-21.8,6.3-40.2,18.8-55.2c12.6-15,27.9-22.5,46-22.5c17.4,0,31.8,6.8,43.1,20.3v-47.5h-23.3V73.5
		h71.1v180.4H1359.4z M1139.2,253.9v34.4H1034v-34.4h27.6v-80.6h-25.9v-34.4h69.7v38c2.7-10.9,8.8-20.4,18.3-28.3
		c9.5-8,20.8-12,33.8-12c2.2,0,4.7,0.1,7.7,0.2v45.1c-12,0-21.9,1.3-29.5,4c-7.6,2.7-13.9,8.6-18.8,17.6c-4.9,9.1-7.4,19.8-7.4,32.1
		v18.4H1139.2z M934.7,254.7c8.9,0,16-3.4,21.5-10.2c5.5-6.8,8.3-17.5,8.3-32c0-12.8-2.7-22.7-8-29.9c-5.3-7.2-12.6-10.7-21.8-10.7
		c-19.7,0-29.5,14.2-29.5,42.6c0,11.6,2.4,21.2,7.3,28.8C917.4,250.9,924.8,254.7,934.7,254.7 M934.8,291.7c-22,0-40.6-7-55.8-20.9
		c-15.2-14-22.8-33.1-22.8-57.4c0-24.3,7.6-43.4,22.8-57.4c15.2-14,33.8-20.9,55.8-20.9c22.1,0,40.8,7,55.9,20.9
		c15.1,14,22.7,33.1,22.7,57.4c0,24-7.5,43-22.5,57.1C976,284.7,957.3,291.7,934.8,291.7 M646.3,289.7L585,109.8h-22.7V73.5h96.8
		v36.3h-22.2L671.8,213l32.7-103.2h-19.5V73.5h77.2v36.3h-19.9L777.6,213l33.8-103.2h-21.5V73.5h86v36.3h-23.3l-59.3,179.9h-40.2
		l-33.8-98.1l-32,98.1H646.3z"/>
	<g>
		<path class="st2" d="M238.5,280.2C238.5,280.2,238.6,280.2,238.5,280.2C238.6,280.2,238.5,280.2,238.5,280.2L238.5,280.2z"/>
		<path class="st3" d="M257.4,79.6L257.4,79.6l26,57.2l0.2,0.5l-8.9,0c0,0.1,0,0.1,0,0.2c0.1,0.8,0.3,1.7,0.3,2.6
			c0,2.8-0.7,5.4-2,7.7c-0.6,1.1-1.2,2.1-2,3c0,0-1.2,12.5-1,35.7c0,0,0,0.1,0,0.1c0.1,13.9,0.8,34.5,2.5,56.9
			c27.2,1.5,52.5,4.6,75.7,8.7l0-97l-6.8,0l17.4-38.1l16.7,38.3l-6.8,0l0,100.9c24.8,5.1,46.8,11.3,65.8,17.5l0-84.5l-6.8,0
			l17.4-38.1l16.7,38.3l-6.8,0l0,91.5c22.5,8.3,39.3,16.2,49.7,21.6c13-122.2-13.6-228.2-13.6-228.2c-123.7-4-233.7-69.8-233.7-69.8
			V79.6z"/>
		<path class="st3" d="M455,302.5l0,95.5h12.1v0h2.9h7.5v0h6.5c4.1-13.2,7.6-26.9,10.6-40.2l0,0c3.7-13.3,5.9-24.3,7.3-32.2
			c0,0,0.1-0.3,0.1-0.4c0.1-0.5,0.2-1,0.2-1.5C494.8,319.8,478.7,311.6,455,302.5z"/>
		<path class="st3" d="M368.7,276.8l0,121.2h12.1v0h22.3v0h11.7h19.7l0-103C415.8,288.7,393.7,282.3,368.7,276.8z"/>
		<path class="st3" d="M348.3,398V272.7c-22.7-4.1-47.5-7.3-74.1-9c0,0.1,0,0.2,0,0.3c0.1,0.5,1.7,13.9,2,16.1
			c4.1,30.9,12.5,79.7,21.1,117.7h-0.4c0,0,0,0,0,0.1v0h42.2v0l0,0H348.3z"/>
		<path class="st4" d="M217.5,397.9c8.6-38,16.9-86.8,21.1-117.7c0,0-0.1,0-0.1,0l0,0c0,0,0.1,0,0.1,0c0.3-2.2,2-15.6,2-16.1
			c0-0.1,0-0.2,0-0.3c-26.8,1.7-51.6,4.9-74.1,9V398v0h9.2v0h42.2c0,0,0,0,0,0c0,0,0,0,0-0.1H217.5z"/>
		<path class="st4" d="M59.8,280.8l0-91.5l-6.8,0L69.7,151l17.4,38.1l-6.8,0l0,84.5c19-6.2,41-12.3,65.8-17.5l0-100.9l-6.8,0
			l16.7-38.3l17.4,38.1l-6.8,0l0,97c23.2-4,48.5-7.2,75.7-8.7c1.6-22.5,2.4-43,2.5-56.9c0,0,0-0.1,0-0.1c0.1-23.2-1-35.7-1-35.7
			c-0.8-0.9-1.4-1.9-2-3c-1.2-2.3-2-4.9-2-7.7c0-0.9,0.1-1.7,0.3-2.6c0-0.1,0-0.1,0-0.2l-8.9,0l0.2-0.5l26-57.1l0,0V4.3
			c0,0-110,65.8-233.7,69.8c0,0-26.5,106-13.6,228.2C20.5,297.1,37.3,289.2,59.8,280.8z"/>
		<path class="st4" d="M80.3,294.9l0,103.1H100h11.7v0H134v0v0h12.1v0l0-121.2C120.2,282.4,98,288.9,80.3,294.9z"/>
		<path class="st4" d="M12.8,323.7C12.8,323.7,12.7,323.7,12.8,323.7c0.1,0.5,0.1,1,0.2,1.5c0,0.1,0,0.3,0.1,0.4c0,0,0,0,0,0
			c1.4,7.9,3.6,18.9,7.3,32.2l0,0c3,13.3,6.5,26.9,10.6,40.2h6.5v0h10.3v0h12.1l0-95.6C36.2,311.5,20,319.7,12.8,323.7z"/>
	</g>
	<g>
		<path class="st5" d="M2206.7,132.5c9.4,0,16.7,7.3,16.7,16.4c0,9.3-7.3,16.5-16.8,16.5c-9.4,0-16.9-7.2-16.9-16.5
			c0-9.1,7.5-16.4,16.9-16.4H2206.7z M2206.5,135.8c-7.2,0-12.6,5.9-12.6,13.1c0,7.3,5.4,13.1,12.8,13.1c7.2,0.1,12.5-5.8,12.5-13.1
			C2219.2,141.7,2213.9,135.8,2206.5,135.8L2206.5,135.8z M2204,157.4h-3.8v-16.3c1.5-0.3,3.6-0.6,6.3-0.6c3.1,0,4.5,0.5,5.7,1.3
			c0.9,0.7,1.6,2,1.6,3.5c0,1.9-1.4,3.3-3.4,3.9v0.2c1.6,0.5,2.5,1.8,3,4c0.5,2.5,0.8,3.5,1.2,4h-4.1c-0.5-0.6-0.8-2-1.3-3.9
			c-0.3-1.8-1.3-2.6-3.4-2.6h-1.8V157.4z M2204.1,148.2h1.8c2.1,0,3.8-0.7,3.8-2.4c0-1.5-1.1-2.5-3.5-2.5c-1,0-1.7,0.1-2.1,0.2
			V148.2z"/>
	</g>
</g>
</svg>
