<?xml version="1.0" encoding="UTF-8"?>
<svg width="86px" height="26px" viewBox="0 0 86 26" version="1.1" xmlns="http://www.w3.org/2000/svg" xmlns:xlink="http://www.w3.org/1999/xlink">
    <title>arrow2</title>
    <g id="Page-1" stroke="none" stroke-width="1" fill="none" fill-rule="evenodd">
        <g id="Create-badge---image-Copy" transform="translate(-795.000000, -218.000000)" fill="#336374">
            <g id="arrow2" transform="translate(795.000000, 218.000000)">
                <path d="M85.2527743,11.0287846 C85.0291804,10.8409658 84.5580864,10.4653284 83.9069923,9.99202513 C81.7582412,8.39556583 77.6702704,5.45995889 74.5990189,3.18547392 C73.0029243,2.00033766 71.6866736,1.0236802 71.0833921,0.482762228 C71.0032358,0.409512919 70.9019857,0.351289109 70.8513607,0.294943486 L70.8513607,0.306212611 L70.8513607,0.293065299 L70.8330794,0.272405237 C70.8246419,0.261136113 70.8204232,0.25550155 70.8218294,0.238597864 L70.8218294,0.238597864 C70.7216008,0.0191459435 70.5127354,-0.0622623017 70.3398646,0.0507452248 C70.1669939,0.163752751 70.086996,0.433994045 70.1552666,0.674337345 C70.2269854,0.978603707 71.7626112,2.67272876 73.859331,4.71995305 C75.783082,6.59814047 78.1540207,8.82567074 80.1143342,10.6512689 C75.6298006,10.6756854 69.8008914,10.6249743 63.3321381,10.6137052 C59.113386,10.6043142 54.6358837,10.5986797 50.0768189,10.641878 C47.4386925,10.6681726 44.7752537,10.7282746 42.1244711,10.7902548 C38.0730628,10.8860423 34.052592,11.0043682 30.1966525,11.1208158 C14.2807069,11.6072663 1.19835652,12.0279803 0.512106166,11.684272 C0.389268144,11.6171708 0.248958141,11.642693 0.144029579,11.7512246 C0.0391010166,11.8597562 -0.0145049592,12.0348087 0.00340450444,12.2104414 C0.0213139681,12.3860742 0.108017998,12.5356045 0.230856023,12.6027056 C0.848200087,12.9558049 11.476643,13.5925104 25.2283687,14.0338845 C30.4314964,14.2010431 36.088843,14.3512981 41.8108772,14.4226693 C44.5727536,14.4583548 47.351505,14.4715021 50.1077564,14.4508421 C52.9202578,14.4320602 55.6933842,14.3738364 58.3976044,14.3043434 C62.8062004,14.1916522 67.016515,14.0338845 70.8344857,13.8648476 C74.942144,13.6770288 78.5885521,13.46855 81.5388661,13.2694622 C81.0438659,13.678907 80.4940219,14.1334284 79.9104278,14.6255135 C79.0905836,15.3148083 78.2074582,16.0717178 77.3130827,16.8511656 C74.0660498,19.6853504 70.6558918,22.7392831 69.5674538,23.650204 C69.1305592,24.0067591 68.9841166,24.7618416 69.2364633,25.3568463 C69.4888101,25.951851 70.0490011,26.1723396 70.5026105,25.8551961 C71.5544861,25.1414849 74.7058939,22.9815693 77.824958,20.6357132 C79.5391776,19.3472767 81.2393347,18.0062509 82.5865229,16.8793384 C83.5022712,16.1209452 84.3879897,15.299703 85.240118,14.4189129 C85.8926184,13.708958 85.9952747,12.9708304 86,12.7754989 C85.9966809,12.7022496 86.0669934,11.6899066 85.2527743,11.0287846 Z" id="Path"></path>
            </g>
        </g>
    </g>
</svg>